<?xml version="1.0" encoding="utf-8"?>
<!-- Generator: Adobe Illustrator 25.4.1, SVG Export Plug-In . SVG Version: 6.00 Build 0)  -->
<svg version="1.1" id="Camada_1" xmlns="http://www.w3.org/2000/svg" xmlns:xlink="http://www.w3.org/1999/xlink" x="0px" y="0px"
	 viewBox="0 0 442.3 27.4" style="enable-background:new 0 0 442.3 27.4;" xml:space="preserve">
<style type="text/css">
	.st0{fill:none;}
	.st1{fill:#193A1F;stroke:#1B3A20;stroke-width:0.4;stroke-miterlimit:10;}
</style>
<rect x="74.7" y="0" class="st0" width="14.8" height="2.2"/>
<path class="st1" d="M0.2,26.8v-21h4.2v17.5h10.4v3.6H0.2z"/>
<path class="st1" d="M35.7,26.8h-4.6L29.4,22h-8.3l-1.7,4.8h-4.4L23,5.6h4.4L35.7,26.8z M28,18.4l-2.9-7.9l-2.8,7.9H28z"/>
<path class="st1" d="M40.4,26.8L33,5.6h4.5l5.2,15.7l5.1-15.7h4.4l-7.4,21.2H40.4z"/>
<path class="st1" d="M58.9,26.8L51.5,5.6h4.5l5.2,15.7l5.1-15.7h4.4l-7.4,21.2H58.9z"/>
<path class="st1" d="M71.4,16.4c0-1.9,0.3-3.7,1-5.4c0.5-1.1,1.1-2.1,1.9-2.9c0.8-0.8,1.7-1.5,2.7-1.9c1.4-0.6,2.9-0.9,4.4-0.8
	c2.7-0.1,5.4,0.9,7.3,2.9c1.8,1.9,2.7,4.6,2.8,8.1c0,3.5-0.9,6.1-2.7,8c-1.9,2-4.6,3-7.3,2.9c-2.7,0.1-5.4-0.9-7.3-2.9
	C72.3,22.4,71.4,19.7,71.4,16.4z M75.7,16.2c-0.1,2,0.4,3.9,1.6,5.5c2,2.3,5.5,2.5,7.8,0.5c0.2-0.1,0.3-0.3,0.5-0.5
	c1.2-1.6,1.8-3.6,1.6-5.5c0-2.4-0.5-4.2-1.6-5.4c-2.2-2.3-5.8-2.4-8.1-0.3c-0.1,0.1-0.2,0.2-0.3,0.3C76.2,12,75.7,13.8,75.7,16.2
	L75.7,16.2z"/>
<path class="st1" d="M94,26.8V5.6h8.8c1.6-0.1,3.3,0.1,4.8,0.6c1,0.4,1.8,1.1,2.4,2c0.6,1,0.9,2.2,0.9,3.3c0.1,1.4-0.4,2.9-1.4,3.9
	c-1.1,1.1-2.5,1.8-4.1,2c0.8,0.5,1.6,1.1,2.2,1.8c0.9,1.1,1.7,2.2,2.4,3.4l2.5,4.1h-5l-3-4.6c-0.7-1.1-1.4-2.1-2.2-3.1
	c-0.3-0.4-0.8-0.7-1.3-0.9c-0.7-0.2-1.4-0.3-2.1-0.2h-0.8v8.9L94,26.8z M98.2,14.6h3.1c1.3,0.1,2.5,0,3.8-0.3
	c0.5-0.2,0.9-0.5,1.2-0.9c0.3-0.5,0.5-1,0.4-1.6c0-0.6-0.2-1.2-0.6-1.7c-0.4-0.5-1-0.8-1.6-0.8c-0.3,0-1.4-0.1-3.1-0.1h-3.3V14.6z"
	/>
<path class="st1" d="M121.5,5.6h8.3c1.2,0,2.5,0,3.7,0.2c0.8,0.1,1.5,0.4,2.2,0.9c0.7,0.5,1.2,1.1,1.6,1.8c0.4,0.8,0.6,1.6,0.6,2.5
	c0,1-0.3,1.9-0.8,2.7c-0.5,0.8-1.3,1.5-2.1,1.9c1.2,0.3,2.2,1,2.9,1.9c0.7,0.9,1,2.1,1,3.2c0,1-0.2,1.9-0.6,2.8
	c-0.4,0.9-1,1.6-1.8,2.2c-0.8,0.6-1.8,0.9-2.8,1c-0.7,0.1-2.4,0.1-5.1,0.1h-7L121.5,5.6z M125.7,9.2v4.9h2.7c1.6,0,2.6,0,3-0.1
	c0.6,0,1.2-0.3,1.7-0.8c0.4-0.4,0.6-1,0.6-1.7c0-0.6-0.2-1.1-0.5-1.6c-0.4-0.4-1-0.7-1.6-0.7c-0.4-0.1-1.6-0.1-3.6-0.1H125.7z
	 M125.7,17.6v5.7h3.9c1,0,1.9,0,2.9-0.1c0.6-0.1,1.1-0.4,1.5-0.9c0.4-0.5,0.6-1.1,0.6-1.8c0-0.6-0.1-1.1-0.4-1.6
	c-0.3-0.5-0.8-0.8-1.3-1c-1.2-0.3-2.5-0.4-3.7-0.3L125.7,17.6z"/>
<path class="st1" d="M160.4,26.8h-4.6L154,22h-8.3l-1.7,4.8h-4.4l8.1-21.2h4.4L160.4,26.8z M152.7,18.4l-2.9-7.9l-2.8,7.9H152.7z"/>
<path class="st1" d="M161.9,26.8V5.6h4.1l8.5,14.2V5.6h3.9v21.2h-4.2L165.8,13v13.8H161.9z"/>
<path class="st1" d="M195.3,19l4.1,1.4c-0.4,2-1.5,3.8-3.1,5.2c-3.8,2.6-9,2.1-12.3-1.2c-1.9-2.2-2.8-5-2.7-7.9
	c0-3.5,0.9-6.3,2.7-8.2c1.8-2,4.4-3,7-2.9c2.3-0.1,4.5,0.7,6.2,2.3c1,1.1,1.8,2.4,2.1,3.9l-4.1,1c-0.2-1-0.7-1.9-1.5-2.6
	c-0.8-0.7-1.8-1-2.8-1c-1.4,0-2.8,0.6-3.7,1.7c-1,1.1-1.4,3-1.4,5.5c0,2.7,0.5,4.6,1.4,5.7c0.9,1.1,2.3,1.7,3.7,1.7
	c1.1,0,2.1-0.4,2.9-1.1C194.5,21.5,195.1,20.3,195.3,19z"/>
<path class="st1" d="M201.4,16.4c-0.1-1.9,0.3-3.7,0.9-5.4c0.5-1.1,1.1-2.1,1.9-2.9c0.8-0.8,1.7-1.5,2.7-1.9
	c1.4-0.6,2.9-0.9,4.5-0.8c2.7-0.1,5.4,0.9,7.3,2.9c1.8,1.9,2.7,4.6,2.8,8.1c0,3.5-0.9,6.1-2.7,8c-1.9,2-4.6,3-7.3,2.9
	c-2.7,0.1-5.4-0.9-7.4-2.9C202.3,22.4,201.4,19.7,201.4,16.4z M205.7,16.2c-0.1,2,0.4,3.9,1.6,5.5c2,2.3,5.5,2.5,7.8,0.5
	c0.2-0.1,0.3-0.3,0.5-0.5c1.2-1.6,1.8-3.6,1.6-5.5c0-2.4-0.5-4.2-1.6-5.4c-2.2-2.3-5.8-2.4-8.1-0.3c-0.1,0.1-0.2,0.2-0.3,0.3
	C206.2,12,205.7,13.8,205.7,16.2z"/>
<path class="st1" d="M231.4,26.8V5.6h8.8c1.6-0.1,3.3,0.1,4.8,0.6c1,0.4,1.9,1.1,2.4,2c0.6,1,0.9,2.2,0.9,3.3
	c0.1,1.4-0.4,2.9-1.4,3.9c-1.1,1.1-2.5,1.8-4.1,2c0.8,0.5,1.6,1.1,2.2,1.8c0.9,1.1,1.7,2.2,2.4,3.4l2.5,4.1h-5l-3-4.6
	c-0.7-1.1-1.4-2.1-2.2-3.1c-0.3-0.4-0.8-0.7-1.3-0.9c-0.7-0.2-1.4-0.3-2.2-0.2h-0.8v8.9L231.4,26.8z M235.6,14.6h3.1
	c1.3,0.1,2.5,0,3.8-0.3c0.5-0.2,0.9-0.5,1.2-0.9c0.3-0.5,0.4-1,0.4-1.6c0-0.6-0.2-1.2-0.6-1.7c-0.4-0.5-1-0.8-1.6-0.8
	c-0.3,0-1.4-0.1-3.1-0.1h-3.3L235.6,14.6z"/>
<path class="st1" d="M251.5,5.6h4.2v11.5c0,1.2,0,2.4,0.2,3.5c0.1,0.8,0.6,1.6,1.3,2.1c0.8,0.6,1.8,0.8,2.8,0.8
	c1,0.1,1.9-0.2,2.7-0.7c0.6-0.4,1-1.1,1.1-1.8c0.1-1.2,0.2-2.4,0.2-3.6V5.6h4.2v11.1c0.1,1.8-0.1,3.6-0.3,5.4
	c-0.2,1-0.6,1.9-1.3,2.7c-0.7,0.8-1.5,1.4-2.4,1.7c-1.3,0.5-2.6,0.7-4,0.6c-1.5,0.1-3.1-0.2-4.5-0.7c-0.9-0.4-1.8-1-2.4-1.8
	c-0.6-0.7-1-1.5-1.2-2.4c-0.3-1.8-0.5-3.6-0.4-5.4L251.5,5.6z"/>
<path class="st1" d="M271.7,26.8V5.6h8.8c1.6-0.1,3.3,0.1,4.9,0.6c1,0.4,1.9,1.1,2.4,2c0.6,1,0.9,2.2,0.9,3.3
	c0.1,1.4-0.4,2.9-1.4,3.9c-1.1,1.1-2.5,1.8-4.1,2c0.8,0.5,1.5,1.1,2.2,1.8c0.9,1.1,1.7,2.2,2.4,3.4l2.5,4.1h-5l-3-4.6
	c-0.7-1.1-1.4-2.1-2.2-3.1c-0.3-0.4-0.8-0.7-1.3-0.9c-0.7-0.2-1.4-0.3-2.1-0.2h-0.9v8.9H271.7z M275.9,14.6h3.1
	c1.3,0.1,2.5,0,3.8-0.3c0.5-0.2,0.9-0.5,1.2-0.9c0.3-0.5,0.4-1,0.4-1.6c0-0.6-0.2-1.2-0.6-1.7c-0.4-0.5-1-0.8-1.6-0.8
	c-0.3,0-1.4-0.1-3.1-0.1h-3.3V14.6z"/>
<path class="st1" d="M310.5,26.8H306l-1.8-4.8h-8.3l-1.7,4.8h-4.4l8.1-21.2h4.4L310.5,26.8z M302.8,18.4l-2.9-7.9l-2.8,7.9H302.8z"
	/>
<path class="st1" d="M312.1,26.8v-21h4.2v17.5h10.4v3.6H312.1z"/>
<path class="st1" d="M335.8,5.6h7.6c1.3-0.1,2.7,0.1,4,0.4c1.2,0.4,2.3,1.1,3.1,2c0.9,1,1.6,2.2,2,3.4c0.5,1.6,0.7,3.3,0.7,5
	c0,1.5-0.2,3.1-0.6,4.5c-0.4,1.4-1.2,2.7-2.2,3.8c-0.8,0.8-1.8,1.4-2.9,1.7c-1.2,0.3-2.5,0.5-3.7,0.5h-7.9L335.8,5.6z M340,9.2v14.1
	h3.1c0.8,0,1.7,0,2.5-0.2c0.6-0.1,1.2-0.4,1.7-0.9c0.5-0.6,0.9-1.3,1.1-2.1c0.3-1.3,0.5-2.6,0.4-3.9c0-1.3-0.1-2.5-0.4-3.8
	c-0.2-0.8-0.6-1.5-1.2-2.1c-0.5-0.5-1.2-0.9-1.9-1c-1.1-0.2-2.3-0.3-3.4-0.2H340z"/>
<path class="st1" d="M355.8,26.8V5.6h4.2v21.2H355.8z"/>
<path class="st1" d="M372.9,19v-3.5h9v8.4c-1.1,1-2.4,1.8-3.8,2.3c-1.6,0.7-3.3,1-5.1,1c-2,0-3.9-0.4-5.7-1.4
	c-1.6-0.9-2.9-2.3-3.6-4c-0.8-1.8-1.2-3.7-1.2-5.6c0-2,0.4-4.1,1.4-5.9c0.9-1.7,2.3-3.1,4-4c1.6-0.8,3.3-1.1,5-1.1
	c2.1-0.1,4.2,0.5,6,1.7c1.5,1.1,2.5,2.8,2.8,4.6l-4.1,0.8c-0.3-1-0.8-1.9-1.6-2.5c-0.9-0.6-1.9-0.9-3-0.9c-1.6-0.1-3.2,0.6-4.4,1.8
	c-1.2,1.5-1.8,3.4-1.7,5.3c0,2.5,0.5,4.4,1.6,5.7c1.1,1.3,2.6,1.9,4.3,1.9c0.9,0,1.8-0.2,2.6-0.5c0.8-0.3,1.6-0.7,2.3-1.3V19H372.9z
	"/>
<path class="st1" d="M384.9,26.8V5.6h4.2v21.2H384.9z"/>
<path class="st1" d="M397.1,26.8V9.2h-6.1V5.6h16.5v3.6h-6.1v17.6H397.1z"/>
<path class="st1" d="M425.9,26.8h-4.5l-1.8-4.8h-8.3l-1.7,4.8h-4.4l8.1-21.2h4.4L425.9,26.8z M418.2,18.4l-2.9-7.9l-2.8,7.9H418.2z"
	/>
<path class="st1" d="M427.5,26.8v-21h4.2v17.5h10.4v3.6H427.5z"/>
</svg>
